<?xml version="1.0" encoding="UTF-8"?>
<!-- scaled +10% around viewBox center -->
<svg xmlns="http://www.w3.org/2000/svg" width="667" height="532" viewBox="0 0 665 532">
<path fill-rule="evenodd" fill="#00ab80" d="M 513.295743 232.932969 L 463.128007 284.291798 C 454.454765 350.175352 399.385586 400.905548 332.750507 400.905548 C 260.07961 400.905548 201.177187 340.556798 201.177187 266.127618 C 201.177187 191.693711 260.07961 131.344961 332.750507 131.344961 C 400.704298 131.344961 456.591173 184.088673 463.567577 251.791952 L 513.234298 200.938868 L 560.632265 249.466485 C 552.270977 127.951289 453.448007 32.020977 332.750507 32.020977 C 206.52293 32.020977 104.178673 136.81832 104.178673 266.127618 C 104.178673 395.436914 206.52293 500.229532 332.750507 500.229532 C 453.887577 500.229532 552.961055 403.670586 560.755157 281.588202 Z M 513.295743 232.932969 "/>
</svg>
